# This file uses centimeters as units for non-parametric coordinates.

g default
v 0.369403 0.508027 -0.056841
v 0.314233 0.616304 -0.056841
v 0.228303 0.702233 -0.056841
v 0.120026 0.757403 -0.056841
v -0.000000 0.776414 -0.056841
v -0.120026 0.757403 -0.056841
v -0.228303 0.702233 -0.056841
v -0.314233 0.616304 -0.056841
v -0.369403 0.508027 -0.056841
v -0.388413 0.388001 -0.056841
v -0.369403 0.267975 -0.056841
v -0.314233 0.159698 -0.056841
v -0.228303 0.073768 -0.056841
v -0.120026 0.018598 -0.056841
v -0.000000 -0.000412 -0.056841
v 0.120026 0.018598 -0.056841
v 0.228303 0.073768 -0.056841
v 0.314232 0.159698 -0.056841
v 0.369402 0.267975 -0.056841
v 0.388413 0.388001 -0.056841
v 0.222128 0.460175 -0.056841
v 0.188954 0.525284 -0.056841
v 0.137283 0.576955 -0.056841
v 0.072174 0.610129 -0.056841
v -0.000000 0.621560 -0.056841
v -0.072174 0.610129 -0.056841
v -0.137283 0.576955 -0.056841
v -0.188954 0.525284 -0.056841
v -0.222128 0.460175 -0.056841
v -0.233560 0.388001 -0.056841
v -0.222128 0.315827 -0.056841
v -0.188954 0.250718 -0.056841
v -0.137283 0.199047 -0.056841
v -0.072174 0.165873 -0.056841
v -0.000000 0.154441 -0.056841
v 0.072174 0.165873 -0.056841
v 0.137283 0.199047 -0.056841
v 0.188954 0.250718 -0.056841
v 0.222128 0.315827 -0.056841
v 0.233559 0.388001 -0.056841
v 0.369403 0.508027 0.056841
v 0.314233 0.616304 0.056841
v 0.188954 0.525284 0.056841
v 0.222128 0.460175 0.056841
v 0.228303 0.702233 0.056841
v 0.137283 0.576955 0.056841
v 0.120026 0.757403 0.056841
v 0.072174 0.610129 0.056841
v -0.000000 0.776414 0.056841
v -0.000000 0.621560 0.056841
v -0.120026 0.757403 0.056841
v -0.072174 0.610129 0.056841
v -0.228303 0.702233 0.056841
v -0.137283 0.576955 0.056841
v -0.314233 0.616304 0.056841
v -0.188954 0.525284 0.056841
v -0.369403 0.508027 0.056841
v -0.222128 0.460175 0.056841
v -0.388413 0.388001 0.056841
v -0.233560 0.388001 0.056841
v -0.369403 0.267975 0.056841
v -0.222128 0.315827 0.056841
v -0.314233 0.159698 0.056841
v -0.188954 0.250718 0.056841
v -0.228303 0.073768 0.056841
v -0.137283 0.199047 0.056841
v -0.120026 0.018598 0.056841
v -0.072174 0.165873 0.056841
v -0.000000 -0.000412 0.056841
v -0.000000 0.154441 0.056841
v 0.120026 0.018598 0.056841
v 0.072174 0.165873 0.056841
v 0.228303 0.073768 0.056841
v 0.137283 0.199047 0.056841
v 0.314232 0.159698 0.056841
v 0.188954 0.250718 0.056841
v 0.369402 0.267975 0.056841
v 0.222128 0.315827 0.056841
v 0.388413 0.388001 0.056841
v 0.233559 0.388001 0.056841
vt 0.648603 0.795466
vt 0.626409 0.751908
vt 0.591842 0.717341
vt 0.548284 0.695147
vt 0.500000 0.687500
vt 0.451716 0.695147
vt 0.408159 0.717341
vt 0.373591 0.751909
vt 0.351397 0.795466
vt 0.343750 0.843750
vt 0.351397 0.892034
vt 0.373591 0.935591
vt 0.408159 0.970159
vt 0.451716 0.992353
vt 0.500000 1.000000
vt 0.548284 0.992353
vt 0.591841 0.970159
vt 0.626409 0.935591
vt 0.648603 0.892034
vt 0.656250 0.843750
vt 0.648603 0.892034
vt 0.626409 0.935591
vt 0.591841 0.970159
vt 0.548284 0.992353
vt 0.500000 1.000000
vt 0.451716 0.992353
vt 0.408159 0.970159
vt 0.373591 0.935591
vt 0.351397 0.892034
vt 0.343750 0.843750
vt 0.351397 0.795466
vt 0.373591 0.751909
vt 0.408159 0.717341
vt 0.451716 0.695147
vt 0.500000 0.687500
vt 0.548284 0.695147
vt 0.591842 0.717341
vt 0.626409 0.751908
vt 0.648603 0.795466
vt 0.656250 0.843750
vt 0.648603 0.892034
vt 0.626409 0.935591
vt 0.626409 0.935591
vt 0.648603 0.892034
vt 0.591841 0.970159
vt 0.591841 0.970159
vt 0.548284 0.992353
vt 0.548284 0.992353
vt 0.500000 1.000000
vt 0.500000 1.000000
vt 0.451716 0.992353
vt 0.451716 0.992353
vt 0.408159 0.970159
vt 0.408159 0.970159
vt 0.373591 0.935591
vt 0.373591 0.935591
vt 0.351397 0.892034
vt 0.351397 0.892034
vt 0.343750 0.843750
vt 0.343750 0.843750
vt 0.351397 0.795466
vt 0.351397 0.795466
vt 0.373591 0.751909
vt 0.373591 0.751909
vt 0.408159 0.717341
vt 0.408159 0.717341
vt 0.451716 0.695147
vt 0.451716 0.695147
vt 0.500000 0.687500
vt 0.500000 0.687500
vt 0.548284 0.695147
vt 0.548284 0.695147
vt 0.591842 0.717341
vt 0.591842 0.717341
vt 0.626409 0.751908
vt 0.626409 0.751908
vt 0.648603 0.795466
vt 0.648603 0.795466
vt 0.656250 0.843750
vt 0.656250 0.843750
vt 0.648603 0.892034
vt 0.626409 0.935591
vt 0.626409 0.935591
vt 0.648603 0.892034
vt 0.591841 0.970159
vt 0.591841 0.970159
vt 0.548284 0.992353
vt 0.548284 0.992353
vt 0.500000 1.000000
vt 0.500000 1.000000
vt 0.451716 0.992353
vt 0.451716 0.992353
vt 0.408159 0.970159
vt 0.408159 0.970159
vt 0.373591 0.935591
vt 0.373591 0.935591
vt 0.351397 0.892034
vt 0.351397 0.892034
vt 0.343750 0.843750
vt 0.343750 0.843750
vt 0.351397 0.795466
vt 0.351397 0.795466
vt 0.373591 0.751909
vt 0.373591 0.751909
vt 0.408159 0.717341
vt 0.408159 0.717341
vt 0.451716 0.695147
vt 0.451716 0.695147
vt 0.500000 0.687500
vt 0.500000 0.687500
vt 0.548284 0.695147
vt 0.548284 0.695147
vt 0.591842 0.717341
vt 0.591842 0.717341
vt 0.626409 0.751908
vt 0.626409 0.751908
vt 0.648603 0.795466
vt 0.648603 0.795466
vt 0.656250 0.843750
vt 0.656250 0.843750
vn 0.000000 -0.000000 1.000000
vn 0.000000 -0.000000 1.000000
vn 0.000000 -0.000000 1.000000
vn 0.000000 -0.000000 1.000000
vn 0.000000 0.000000 1.000000
vn 0.000000 0.000000 1.000000
vn 0.000000 0.000000 1.000000
vn 0.000000 0.000000 1.000000
vn 0.000000 -0.000000 1.000000
vn 0.000000 -0.000000 1.000000
vn 0.000000 -0.000000 1.000000
vn 0.000000 -0.000000 1.000000
vn 0.000000 -0.000000 1.000000
vn 0.000000 -0.000000 1.000000
vn 0.000000 -0.000000 1.000000
vn 0.000000 -0.000000 1.000000
vn 0.000000 0.000000 1.000000
vn 0.000000 0.000000 1.000000
vn 0.000000 0.000000 1.000000
vn 0.000000 0.000000 1.000000
vn 0.000000 -0.000000 1.000000
vn 0.000000 -0.000000 1.000000
vn 0.000000 -0.000000 1.000000
vn 0.000000 -0.000000 1.000000
vn 0.000000 -0.000000 1.000000
vn 0.000000 -0.000000 1.000000
vn 0.000000 -0.000000 1.000000
vn 0.000000 -0.000000 1.000000
vn 0.000000 -0.000000 1.000000
vn 0.000000 -0.000000 1.000000
vn 0.000000 -0.000000 1.000000
vn 0.000000 -0.000000 1.000000
vn 0.000000 -0.000000 1.000000
vn 0.000000 -0.000000 1.000000
vn 0.000000 -0.000000 1.000000
vn 0.000000 -0.000000 1.000000
vn 0.000000 0.000001 1.000000
vn 0.000000 0.000001 1.000000
vn 0.000000 0.000001 1.000000
vn 0.000000 0.000001 1.000000
vn 0.000000 -0.000000 1.000000
vn 0.000000 -0.000000 1.000000
vn 0.000000 -0.000000 1.000000
vn 0.000000 -0.000000 1.000000
vn 0.000000 0.000000 1.000000
vn 0.000000 0.000000 1.000000
vn 0.000000 0.000000 1.000000
vn 0.000000 0.000000 1.000000
vn 0.000000 0.000000 1.000000
vn 0.000000 0.000000 1.000000
vn 0.000000 0.000000 1.000000
vn 0.000000 0.000000 1.000000
vn 0.000000 -0.000000 1.000000
vn 0.000000 -0.000000 1.000000
vn 0.000000 -0.000000 1.000000
vn 0.000000 -0.000000 1.000000
vn 0.000000 0.000000 1.000000
vn 0.000000 0.000000 1.000000
vn 0.000000 0.000000 1.000000
vn 0.000000 0.000000 1.000000
vn 0.000000 -0.000000 1.000000
vn 0.000000 -0.000000 1.000000
vn 0.000000 -0.000000 1.000000
vn 0.000000 -0.000000 1.000000
vn 0.000000 -0.000000 1.000000
vn 0.000000 -0.000000 1.000000
vn 0.000000 -0.000000 1.000000
vn 0.000000 -0.000000 1.000000
vn 0.000000 -0.000000 1.000000
vn 0.000000 -0.000000 1.000000
vn 0.000000 -0.000000 1.000000
vn 0.000000 -0.000000 1.000000
vn 0.000000 -0.000000 1.000000
vn 0.000000 -0.000000 1.000000
vn 0.000000 -0.000000 1.000000
vn 0.000000 -0.000000 1.000000
vn 0.000000 -0.000001 1.000000
vn 0.000000 -0.000001 1.000000
vn 0.000000 -0.000001 1.000000
vn 0.000000 -0.000001 1.000000
vn 0.000000 0.000000 -1.000000
vn 0.000000 0.000000 -1.000000
vn 0.000000 0.000000 -1.000000
vn 0.000000 0.000000 -1.000000
vn 0.000000 0.000000 -1.000000
vn 0.000000 0.000000 -1.000000
vn 0.000000 0.000000 -1.000000
vn 0.000000 0.000000 -1.000000
vn 0.000000 0.000000 -1.000000
vn 0.000000 0.000000 -1.000000
vn 0.000000 0.000000 -1.000000
vn 0.000000 0.000000 -1.000000
vn 0.000000 0.000000 -1.000000
vn 0.000000 0.000000 -1.000000
vn 0.000000 0.000000 -1.000000
vn 0.000000 0.000000 -1.000000
vn 0.000000 0.000000 -1.000000
vn 0.000000 0.000000 -1.000000
vn 0.000000 0.000000 -1.000000
vn 0.000000 0.000000 -1.000000
vn 0.000000 0.000000 -1.000000
vn 0.000000 0.000000 -1.000000
vn 0.000000 0.000000 -1.000000
vn 0.000000 0.000000 -1.000000
vn 0.000000 0.000000 -1.000000
vn 0.000000 0.000000 -1.000000
vn 0.000000 0.000000 -1.000000
vn 0.000000 0.000000 -1.000000
vn 0.000000 0.000000 -1.000000
vn 0.000000 0.000000 -1.000000
vn 0.000000 0.000000 -1.000000
vn 0.000000 0.000000 -1.000000
vn 0.000000 0.000000 -1.000000
vn 0.000000 0.000000 -1.000000
vn 0.000000 0.000000 -1.000000
vn 0.000000 0.000000 -1.000000
vn 0.000000 0.000000 -1.000000
vn 0.000000 0.000000 -1.000000
vn 0.000000 0.000000 -1.000000
vn 0.000000 0.000000 -1.000000
vn 0.000000 0.000000 -1.000000
vn 0.000000 0.000000 -1.000000
vn 0.000000 0.000000 -1.000000
vn 0.000000 0.000000 -1.000000
vn 0.000000 0.000000 -1.000000
vn 0.000000 0.000000 -1.000000
vn 0.000000 0.000000 -1.000000
vn 0.000000 0.000000 -1.000000
vn 0.000000 0.000000 -1.000000
vn 0.000000 0.000000 -1.000000
vn 0.000000 0.000000 -1.000000
vn 0.000000 0.000000 -1.000000
vn 0.000000 0.000000 -1.000000
vn 0.000000 0.000000 -1.000000
vn 0.000000 0.000000 -1.000000
vn 0.000000 0.000000 -1.000000
vn 0.000000 0.000000 -1.000000
vn 0.000000 0.000000 -1.000000
vn 0.000000 0.000000 -1.000000
vn 0.000000 0.000000 -1.000000
vn 0.000000 0.000000 -1.000000
vn 0.000000 0.000000 -1.000000
vn 0.000000 0.000000 -1.000000
vn 0.000000 0.000000 -1.000000
vn 0.000000 0.000000 -1.000000
vn 0.000000 0.000000 -1.000000
vn 0.000000 0.000000 -1.000000
vn 0.000000 0.000000 -1.000000
vn 0.000000 0.000000 -1.000000
vn 0.000000 0.000000 -1.000000
vn 0.000000 0.000000 -1.000000
vn 0.000000 0.000000 -1.000000
vn 0.000000 0.000000 -1.000000
vn 0.000000 0.000000 -1.000000
vn 0.000000 0.000000 -1.000000
vn 0.000000 0.000000 -1.000000
vn 0.000000 0.000000 -1.000000
vn 0.000000 0.000000 -1.000000
vn 0.000000 0.000000 -1.000000
vn 0.000000 0.000000 -1.000000
vn 0.951057 0.309016 0.000000
vn 0.809017 0.587785 0.000000
vn 0.809017 0.587785 0.000000
vn 0.951057 0.309016 0.000000
vn -0.809017 -0.587785 -0.000000
vn -0.951057 -0.309016 -0.000000
vn -0.951057 -0.309016 -0.000000
vn -0.809017 -0.587785 -0.000000
vn 0.587785 0.809017 -0.000000
vn 0.587785 0.809017 -0.000000
vn -0.587785 -0.809017 -0.000000
vn -0.587785 -0.809017 -0.000000
vn 0.309017 0.951057 -0.000000
vn 0.309017 0.951057 -0.000000
vn -0.309017 -0.951057 0.000000
vn -0.309017 -0.951057 0.000000
vn -0.000000 1.000000 -0.000000
vn -0.000000 1.000000 -0.000000
vn 0.000000 -1.000000 0.000000
vn 0.000000 -1.000000 0.000000
vn -0.309017 0.951056 -0.000000
vn -0.309017 0.951056 -0.000000
vn 0.309017 -0.951057 -0.000000
vn 0.309017 -0.951057 -0.000000
vn -0.587786 0.809017 0.000000
vn -0.587786 0.809017 0.000000
vn 0.587785 -0.809017 -0.000000
vn 0.587785 -0.809017 -0.000000
vn -0.809017 0.587785 -0.000000
vn -0.809017 0.587785 -0.000000
vn 0.809017 -0.587785 0.000000
vn 0.809017 -0.587785 0.000000
vn -0.951057 0.309017 -0.000000
vn -0.951057 0.309017 -0.000000
vn 0.951057 -0.309016 0.000000
vn 0.951057 -0.309016 0.000000
vn -1.000000 -0.000000 0.000000
vn -1.000000 -0.000000 -0.000000
vn 1.000000 0.000000 0.000000
vn 1.000000 0.000000 0.000000
vn -0.951056 -0.309017 -0.000000
vn -0.951056 -0.309017 -0.000000
vn 0.951057 0.309016 0.000000
vn 0.951057 0.309016 0.000000
vn -0.809017 -0.587785 -0.000000
vn -0.809017 -0.587785 -0.000000
vn 0.809017 0.587786 0.000000
vn 0.809017 0.587786 0.000000
vn -0.587785 -0.809017 -0.000000
vn -0.587785 -0.809017 -0.000000
vn 0.587785 0.809017 -0.000000
vn 0.587785 0.809017 -0.000000
vn -0.309017 -0.951057 0.000000
vn -0.309017 -0.951057 0.000000
vn 0.309017 0.951057 -0.000000
vn 0.309017 0.951057 -0.000000
vn 0.000000 -1.000000 -0.000000
vn 0.000000 -1.000000 -0.000000
vn 0.000000 1.000000 0.000000
vn 0.000000 1.000000 0.000000
vn 0.309017 -0.951056 -0.000000
vn 0.309017 -0.951056 -0.000000
vn -0.309017 0.951057 -0.000000
vn -0.309017 0.951057 -0.000000
vn 0.587785 -0.809017 -0.000000
vn 0.587785 -0.809017 -0.000000
vn -0.587785 0.809017 -0.000000
vn -0.587785 0.809017 -0.000000
vn 0.809017 -0.587785 -0.000000
vn 0.809017 -0.587785 -0.000000
vn -0.809017 0.587785 0.000000
vn -0.809017 0.587785 0.000000
vn 0.951057 -0.309017 -0.000000
vn 0.951057 -0.309017 -0.000000
vn -0.951057 0.309016 0.000000
vn -0.951057 0.309016 0.000000
vn 1.000000 -0.000001 -0.000000
vn 1.000000 -0.000001 -0.000000
vn -1.000000 0.000000 0.000000
vn -1.000000 0.000000 0.000000
s off
g pCylinder1
f 41/81/1 42/82/2 43/83/3 44/84/4
f 42/82/5 45/85/6 46/86/7 43/83/8
f 45/85/9 47/87/10 48/88/11 46/86/12
f 47/87/13 49/89/14 50/90/15 48/88/16
f 49/89/17 51/91/18 52/92/19 50/90/20
f 51/91/21 53/93/22 54/94/23 52/92/24
f 53/93/25 55/95/26 56/96/27 54/94/28
f 55/95/29 57/97/30 58/98/31 56/96/32
f 57/97/33 59/99/34 60/100/35 58/98/36
f 59/99/37 61/101/38 62/102/39 60/100/40
f 61/101/41 63/103/42 64/104/43 62/102/44
f 63/103/45 65/105/46 66/106/47 64/104/48
f 65/105/49 67/107/50 68/108/51 66/106/52
f 67/107/53 69/109/54 70/110/55 68/108/56
f 69/109/57 71/111/58 72/112/59 70/110/60
f 71/111/61 73/113/62 74/114/63 72/112/64
f 73/113/65 75/115/66 76/116/67 74/114/68
f 75/115/69 77/117/70 78/118/71 76/116/72
f 77/117/73 79/119/74 80/120/75 78/118/76
f 79/119/77 41/81/78 44/84/79 80/120/80
f 1/41/81 21/44/82 22/43/83 2/42/84
f 2/42/85 22/43/86 23/46/87 3/45/88
f 3/45/89 23/46/90 24/48/91 4/47/92
f 4/47/93 24/48/94 25/50/95 5/49/96
f 5/49/97 25/50/98 26/52/99 6/51/100
f 6/51/101 26/52/102 27/54/103 7/53/104
f 7/53/105 27/54/106 28/56/107 8/55/108
f 8/55/109 28/56/110 29/58/111 9/57/112
f 9/57/113 29/58/114 30/60/115 10/59/116
f 10/59/117 30/60/118 31/62/119 11/61/120
f 11/61/121 31/62/122 32/64/123 12/63/124
f 12/63/125 32/64/126 33/66/127 13/65/128
f 13/65/129 33/66/130 34/68/131 14/67/132
f 14/67/133 34/68/134 35/70/135 15/69/136
f 15/69/137 35/70/138 36/72/139 16/71/140
f 16/71/141 36/72/142 37/74/143 17/73/144
f 17/73/145 37/74/146 38/76/147 18/75/148
f 18/75/149 38/76/150 39/78/151 19/77/152
f 19/77/153 39/78/154 40/80/155 20/79/156
f 20/79/157 40/80/158 21/44/159 1/41/160
s 1
f 1/19/161 2/18/162 42/82/163 41/81/164
s 2
f 22/22/165 21/21/166 44/84/167 43/83/168
s 1
f 2/18/162 3/17/169 45/85/170 42/82/163
s 2
f 23/23/171 22/22/165 43/83/168 46/86/172
s 1
f 3/17/169 4/16/173 47/87/174 45/85/170
s 2
f 24/24/175 23/23/171 46/86/172 48/88/176
s 1
f 4/16/173 5/15/177 49/89/178 47/87/174
s 2
f 25/25/179 24/24/175 48/88/176 50/90/180
s 1
f 5/15/177 6/14/181 51/91/182 49/89/178
s 2
f 26/26/183 25/25/179 50/90/180 52/92/184
s 1
f 6/14/181 7/13/185 53/93/186 51/91/182
s 2
f 27/27/187 26/26/183 52/92/184 54/94/188
s 1
f 7/13/185 8/12/189 55/95/190 53/93/186
s 2
f 28/28/191 27/27/187 54/94/188 56/96/192
s 1
f 8/12/189 9/11/193 57/97/194 55/95/190
s 2
f 29/29/195 28/28/191 56/96/192 58/98/196
s 1
f 9/11/193 10/10/197 59/99/198 57/97/194
s 2
f 30/30/199 29/29/195 58/98/196 60/100/200
s 1
f 10/10/197 11/9/201 61/101/202 59/99/198
s 2
f 31/31/203 30/30/199 60/100/200 62/102/204
s 1
f 11/9/201 12/8/205 63/103/206 61/101/202
s 2
f 32/32/207 31/31/203 62/102/204 64/104/208
s 1
f 12/8/205 13/7/209 65/105/210 63/103/206
s 2
f 33/33/211 32/32/207 64/104/208 66/106/212
s 1
f 13/7/209 14/6/213 67/107/214 65/105/210
s 2
f 34/34/215 33/33/211 66/106/212 68/108/216
s 1
f 14/6/213 15/5/217 69/109/218 67/107/214
s 2
f 35/35/219 34/34/215 68/108/216 70/110/220
s 1
f 15/5/217 16/4/221 71/111/222 69/109/218
s 2
f 36/36/223 35/35/219 70/110/220 72/112/224
s 1
f 16/4/221 17/3/225 73/113/226 71/111/222
s 2
f 37/37/227 36/36/223 72/112/224 74/114/228
s 1
f 17/3/225 18/2/229 75/115/230 73/113/226
s 2
f 38/38/231 37/37/227 74/114/228 76/116/232
s 1
f 18/2/229 19/1/233 77/117/234 75/115/230
s 2
f 39/39/235 38/38/231 76/116/232 78/118/236
s 1
f 19/1/233 20/20/237 79/119/238 77/117/234
s 2
f 40/40/239 39/39/235 78/118/236 80/120/240
s 1
f 20/20/237 1/19/161 41/81/164 79/119/238
s 2
f 21/21/166 40/40/239 80/120/240 44/84/167
